<svg width="805" height="128" viewBox="0 0 805 128" fill="none" xmlns="http://www.w3.org/2000/svg">
<g filter="url(#filter0_d_1_4)">
<mask id="path-1-outside-1_1_4" maskUnits="userSpaceOnUse" x="5" y="41" width="356" height="70" fill="black">
<rect fill="white" x="5" y="41" width="356" height="70"/>
<path d="M6.24 45.832V42.952H23.904L51.552 101.704L48.384 109H35.904L6.24 45.832ZM60.48 81.256H60.096L53.664 96.808L45.408 79.144L60.48 42.952H78.72V109H60.48V81.256ZM6.24 55.336L23.904 92.968V109H6.24V55.336ZM118.058 109.768C111.338 109.768 106.154 109.224 102.506 108.136C98.8575 107.048 96.1695 105.288 94.4415 102.856C92.8415 100.616 91.8495 97.768 91.4655 94.312C91.0815 90.856 90.8895 85.704 90.8895 78.856V42.952H110.09V82.696C110.09 85.064 110.154 87.336 110.281 89.512C110.41 91.24 110.698 92.488 111.146 93.256C111.594 94.024 112.362 94.504 113.45 94.696C114.41 94.952 115.946 95.08 118.058 95.08H120.266C120.778 95.08 121.354 95.016 121.994 94.888V109.672C121.546 109.736 120.906 109.768 120.074 109.768H118.058ZM126.026 42.952H145.226V78.856C145.226 85.128 145.098 89.864 144.842 93.064C144.586 96.264 143.882 98.952 142.73 101.128C141.45 103.624 139.498 105.544 136.874 106.888C134.25 108.232 130.634 109.096 126.026 109.48V42.952ZM157.459 42.952H176.659V109H157.459V42.952ZM184.531 86.536H180.691V71.848H183.955C185.939 71.848 187.443 71.784 188.467 71.656C189.491 71.464 190.291 71.144 190.867 70.696C191.379 70.248 191.731 69.576 191.923 68.68C192.115 67.784 192.211 66.472 192.211 64.744C192.211 63.016 192.115 61.704 191.923 60.808C191.731 59.848 191.379 59.144 190.867 58.696C190.355 58.248 189.587 57.96 188.563 57.832C187.603 57.704 186.067 57.64 183.955 57.64H180.691V42.952H190.579C195.123 42.952 198.803 43.4 201.619 44.296C204.435 45.192 206.611 46.568 208.147 48.424C209.555 50.152 210.483 52.296 210.931 54.856C211.443 57.416 211.699 60.712 211.699 64.744C211.699 69.928 211.219 73.928 210.259 76.744C208.915 80.328 206.547 82.856 203.155 84.328L213.139 109H192.979L184.531 86.536ZM237.122 42.952H238.754L246.338 69.256L235.298 109H216.098L237.122 42.952ZM258.722 97.288H242.69L246.722 82.504H254.402L243.074 42.952H260.642L281.666 109H262.082L258.722 97.288ZM288.053 42.952H307.253V109H288.053V42.952ZM311.285 93.544H331.829V109H311.285V93.544ZM339.99 42.952H359.19V109H339.99V42.952Z"/>
</mask>
<path d="M6.24 45.832V42.952H23.904L51.552 101.704L48.384 109H35.904L6.24 45.832ZM60.48 81.256H60.096L53.664 96.808L45.408 79.144L60.48 42.952H78.72V109H60.48V81.256ZM6.24 55.336L23.904 92.968V109H6.24V55.336ZM118.058 109.768C111.338 109.768 106.154 109.224 102.506 108.136C98.8575 107.048 96.1695 105.288 94.4415 102.856C92.8415 100.616 91.8495 97.768 91.4655 94.312C91.0815 90.856 90.8895 85.704 90.8895 78.856V42.952H110.09V82.696C110.09 85.064 110.154 87.336 110.281 89.512C110.41 91.24 110.698 92.488 111.146 93.256C111.594 94.024 112.362 94.504 113.45 94.696C114.41 94.952 115.946 95.08 118.058 95.08H120.266C120.778 95.08 121.354 95.016 121.994 94.888V109.672C121.546 109.736 120.906 109.768 120.074 109.768H118.058ZM126.026 42.952H145.226V78.856C145.226 85.128 145.098 89.864 144.842 93.064C144.586 96.264 143.882 98.952 142.73 101.128C141.45 103.624 139.498 105.544 136.874 106.888C134.25 108.232 130.634 109.096 126.026 109.48V42.952ZM157.459 42.952H176.659V109H157.459V42.952ZM184.531 86.536H180.691V71.848H183.955C185.939 71.848 187.443 71.784 188.467 71.656C189.491 71.464 190.291 71.144 190.867 70.696C191.379 70.248 191.731 69.576 191.923 68.68C192.115 67.784 192.211 66.472 192.211 64.744C192.211 63.016 192.115 61.704 191.923 60.808C191.731 59.848 191.379 59.144 190.867 58.696C190.355 58.248 189.587 57.96 188.563 57.832C187.603 57.704 186.067 57.64 183.955 57.64H180.691V42.952H190.579C195.123 42.952 198.803 43.4 201.619 44.296C204.435 45.192 206.611 46.568 208.147 48.424C209.555 50.152 210.483 52.296 210.931 54.856C211.443 57.416 211.699 60.712 211.699 64.744C211.699 69.928 211.219 73.928 210.259 76.744C208.915 80.328 206.547 82.856 203.155 84.328L213.139 109H192.979L184.531 86.536ZM237.122 42.952H238.754L246.338 69.256L235.298 109H216.098L237.122 42.952ZM258.722 97.288H242.69L246.722 82.504H254.402L243.074 42.952H260.642L281.666 109H262.082L258.722 97.288ZM288.053 42.952H307.253V109H288.053V42.952ZM311.285 93.544H331.829V109H311.285V93.544ZM339.99 42.952H359.19V109H339.99V42.952Z" fill="white"/>
<path d="M6.24 45.832H5.24V46.0551L5.33484 46.2571L6.24 45.832ZM6.24 42.952V41.952H5.24V42.952H6.24ZM23.904 42.952L24.8088 42.5262L24.5386 41.952H23.904V42.952ZM51.552 101.704L52.4693 102.102L52.6494 101.687L52.4568 101.278L51.552 101.704ZM48.384 109V110H49.04L49.3013 109.398L48.384 109ZM35.904 109L34.9988 109.425L35.2688 110H35.904V109ZM60.48 81.256H61.48V80.256H60.48V81.256ZM60.096 81.256V80.256H59.4274L59.1719 80.8738L60.096 81.256ZM53.664 96.808L52.7581 97.2314L53.7199 99.2893L54.5881 97.1902L53.664 96.808ZM45.408 79.144L44.4849 78.7596L44.3151 79.1673L44.5021 79.5674L45.408 79.144ZM60.48 42.952V41.952H59.8132L59.5569 42.5676L60.48 42.952ZM78.72 42.952H79.72V41.952H78.72V42.952ZM78.72 109V110H79.72V109H78.72ZM60.48 109H59.48V110H60.48V109ZM6.24 55.336L7.14524 54.9111L5.24 55.336H6.24ZM23.904 92.968H24.904V92.745L24.8092 92.5431L23.904 92.968ZM23.904 109V110H24.904V109H23.904ZM6.24 109H5.24V110H6.24V109ZM7.24 45.832V42.952H5.24V45.832H7.24ZM6.24 43.952H23.904V41.952H6.24V43.952ZM22.9992 43.3778L50.6472 102.13L52.4568 101.278L24.8088 42.5262L22.9992 43.3778ZM50.6347 101.306L47.4667 108.602L49.3013 109.398L52.4693 102.102L50.6347 101.306ZM48.384 108H35.904V110H48.384V108ZM36.8092 108.575L7.14516 45.4069L5.33484 46.2571L34.9988 109.425L36.8092 108.575ZM60.48 80.256H60.096V82.256H60.48V80.256ZM59.1719 80.8738L52.7399 96.4258L54.5881 97.1902L61.0201 81.6382L59.1719 80.8738ZM54.5699 96.3846L46.3139 78.7206L44.5021 79.5674L52.7581 97.2314L54.5699 96.3846ZM46.3312 79.5284L61.4032 43.3364L59.5569 42.5676L44.4849 78.7596L46.3312 79.5284ZM60.48 43.952H78.72V41.952H60.48V43.952ZM77.72 42.952V109H79.72V42.952H77.72ZM78.72 108H60.48V110H78.72V108ZM61.48 109V81.256H59.48V109H61.48ZM5.33476 55.7609L22.9988 93.3929L24.8092 92.5431L7.14524 54.9111L5.33476 55.7609ZM22.904 92.968V109H24.904V92.968H22.904ZM23.904 108H6.24V110H23.904V108ZM7.24 109V55.336H5.24V109H7.24ZM102.506 108.136L102.791 107.178L102.791 107.178L102.506 108.136ZM94.4415 102.856L95.2567 102.277L95.2552 102.275L94.4415 102.856ZM91.4655 94.312L92.4594 94.2016L92.4594 94.2016L91.4655 94.312ZM90.8895 42.952V41.952H89.8895V42.952H90.8895ZM110.09 42.952H111.09V41.952H110.09V42.952ZM110.281 89.512L109.283 89.5707L109.284 89.5783L109.284 89.5859L110.281 89.512ZM111.146 93.256L110.282 93.7599L110.282 93.7599L111.146 93.256ZM113.45 94.696L113.707 93.7298L113.666 93.7187L113.623 93.7112L113.45 94.696ZM121.994 94.888H122.994V93.6682L121.797 93.9074L121.994 94.888ZM121.994 109.672L122.135 110.662L122.994 110.539V109.672H121.994ZM126.026 42.952V41.952H125.026V42.952H126.026ZM145.226 42.952H146.226V41.952H145.226V42.952ZM144.842 93.064L143.845 92.9843L144.842 93.064ZM142.73 101.128L141.846 100.66L141.84 100.672L142.73 101.128ZM136.874 106.888L136.418 105.998L136.418 105.998L136.874 106.888ZM126.026 109.48H125.026V110.567L126.109 110.477L126.026 109.48ZM118.058 108.768C111.372 108.768 106.302 108.225 102.791 107.178L102.22 109.094C106.005 110.223 111.303 110.768 118.058 110.768V108.768ZM102.791 107.178C99.2973 106.136 96.8234 104.482 95.2567 102.277L93.6263 103.435C95.5156 106.094 98.4177 107.96 102.22 109.094L102.791 107.178ZM95.2552 102.275C93.7773 100.206 92.8294 97.5317 92.4594 94.2016L90.4716 94.4224C90.8696 98.0043 91.9057 101.026 93.6278 103.437L95.2552 102.275ZM92.4594 94.2016C92.0817 90.8023 91.8895 85.6952 91.8895 78.856H89.8895C89.8895 85.7128 90.0813 90.9097 90.4716 94.4224L92.4594 94.2016ZM91.8895 78.856V42.952H89.8895V78.856H91.8895ZM90.8895 43.952H110.09V41.952H90.8895V43.952ZM109.09 42.952V82.696H111.09V42.952H109.09ZM109.09 82.696C109.09 85.0819 109.154 87.3736 109.283 89.5707L111.28 89.4533C111.153 87.2984 111.09 85.0461 111.09 82.696H109.09ZM109.284 89.5859C109.415 91.3481 109.714 92.787 110.282 93.7599L112.009 92.7521C111.681 92.189 111.404 91.1319 111.279 89.4381L109.284 89.5859ZM110.282 93.7599C110.913 94.8419 111.975 95.4512 113.276 95.6808L113.623 93.7112C112.748 93.5568 112.274 93.2061 112.009 92.7521L110.282 93.7599ZM113.192 95.6622C114.286 95.954 115.933 96.08 118.058 96.08V94.08C115.958 94.08 114.533 93.95 113.707 93.7298L113.192 95.6622ZM118.058 96.08H120.266V94.08H118.058V96.08ZM120.266 96.08C120.858 96.08 121.502 96.0062 122.19 95.8686L121.797 93.9074C121.205 94.0258 120.697 94.08 120.266 94.08V96.08ZM120.994 94.888V109.672H122.994V94.888H120.994ZM121.852 108.682C121.475 108.736 120.89 108.768 120.074 108.768V110.768C120.921 110.768 121.616 110.736 122.135 110.662L121.852 108.682ZM120.074 108.768H118.058V110.768H120.074V108.768ZM126.026 43.952H145.226V41.952H126.026V43.952ZM144.226 42.952V78.856H146.226V42.952H144.226ZM144.226 78.856C144.226 85.1214 144.097 89.8252 143.845 92.9843L145.838 93.1437C146.098 89.9028 146.226 85.1346 146.226 78.856H144.226ZM143.845 92.9843C143.596 96.0879 142.918 98.635 141.846 100.66L143.613 101.596C144.845 99.269 145.575 96.4401 145.838 93.1437L143.845 92.9843ZM141.84 100.672C140.66 102.971 138.865 104.744 136.418 105.998L137.329 107.778C140.13 106.344 142.239 104.277 143.619 101.584L141.84 100.672ZM136.418 105.998C133.957 107.258 130.486 108.105 125.942 108.483L126.109 110.477C130.781 110.087 134.542 109.206 137.329 107.778L136.418 105.998ZM127.026 109.48V42.952H125.026V109.48H127.026ZM157.459 42.952V41.952H156.459V42.952H157.459ZM176.659 42.952H177.659V41.952H176.659V42.952ZM176.659 109V110H177.659V109H176.659ZM157.459 109H156.459V110H157.459V109ZM184.531 86.536L185.467 86.184L185.223 85.536H184.531V86.536ZM180.691 86.536H179.691V87.536H180.691V86.536ZM180.691 71.848V70.848H179.691V71.848H180.691ZM188.467 71.656L188.591 72.6483L188.621 72.6445L188.651 72.6389L188.467 71.656ZM190.867 70.696L191.481 71.4854L191.504 71.4676L191.525 71.4486L190.867 70.696ZM191.923 60.808L190.942 61.0041L190.945 61.0175L191.923 60.808ZM190.867 58.696L191.525 57.9434L191.525 57.9434L190.867 58.696ZM188.563 57.832L188.431 58.8233L188.439 58.8243L188.563 57.832ZM180.691 57.64H179.691V58.64H180.691V57.64ZM180.691 42.952V41.952H179.691V42.952H180.691ZM201.619 44.296L201.922 43.3431L201.922 43.3431L201.619 44.296ZM208.147 48.424L208.922 47.7923L208.917 47.7864L208.147 48.424ZM210.931 54.856L209.946 55.0284L209.948 55.0403L209.95 55.0521L210.931 54.856ZM210.259 76.744L211.195 77.0951L211.2 77.081L211.205 77.0667L210.259 76.744ZM203.155 84.328L202.757 83.4107L201.862 83.799L202.228 84.7031L203.155 84.328ZM213.139 109V110H214.622L214.066 108.625L213.139 109ZM192.979 109L192.043 109.352L192.286 110H192.979V109ZM157.459 43.952H176.659V41.952H157.459V43.952ZM175.659 42.952V109H177.659V42.952H175.659ZM176.659 108H157.459V110H176.659V108ZM158.459 109V42.952H156.459V109H158.459ZM184.531 85.536H180.691V87.536H184.531V85.536ZM181.691 86.536V71.848H179.691V86.536H181.691ZM180.691 72.848H183.955V70.848H180.691V72.848ZM183.955 72.848C185.95 72.848 187.504 72.7842 188.591 72.6483L188.343 70.6637C187.382 70.7838 185.928 70.848 183.955 70.848V72.848ZM188.651 72.6389C189.769 72.4293 190.737 72.0639 191.481 71.4854L190.253 69.9066C189.845 70.2241 189.212 70.4987 188.282 70.6731L188.651 72.6389ZM191.525 71.4486C192.247 70.8167 192.679 69.9239 192.901 68.8895L190.945 68.4705C190.783 69.2281 190.51 69.6793 190.208 69.9434L191.525 71.4486ZM192.901 68.8895C193.115 67.8886 193.211 66.4922 193.211 64.744H191.211C191.211 66.4518 191.114 67.6794 190.945 68.4705L192.901 68.8895ZM193.211 64.744C193.211 62.9958 193.115 61.5994 192.901 60.5985L190.945 61.0175C191.114 61.8086 191.211 63.0362 191.211 64.744H193.211ZM192.903 60.6119C192.687 59.5278 192.262 58.5879 191.525 57.9434L190.208 59.4486C190.496 59.7001 190.775 60.1682 190.942 61.0041L192.903 60.6119ZM191.525 57.9434C190.804 57.3122 189.813 56.9805 188.687 56.8397L188.439 58.8243C189.36 58.9395 189.906 59.1838 190.208 59.4486L191.525 57.9434ZM188.695 56.8408C187.665 56.7034 186.072 56.64 183.955 56.64V58.64C186.062 58.64 187.541 58.7046 188.431 58.8232L188.695 56.8408ZM183.955 56.64H180.691V58.64H183.955V56.64ZM181.691 57.64V42.952H179.691V57.64H181.691ZM180.691 43.952H190.579V41.952H180.691V43.952ZM190.579 43.952C195.069 43.952 198.635 44.3961 201.316 45.2489L201.922 43.3431C198.97 42.4038 195.177 41.952 190.579 41.952V43.952ZM201.316 45.2489C203.99 46.1 205.988 47.3837 207.376 49.0616L208.917 47.7864C207.234 45.7523 204.879 44.284 201.922 43.3431L201.316 45.2489ZM207.372 49.0557C208.655 50.6305 209.522 52.6087 209.946 55.0284L211.916 54.6836C211.443 51.9833 210.455 49.6735 208.922 47.7923L207.372 49.0557ZM209.95 55.0521C210.444 57.5227 210.699 60.7464 210.699 64.744H212.699C212.699 60.6776 212.441 57.3093 211.911 54.6599L209.95 55.0521ZM210.699 64.744C210.699 69.887 210.22 73.7588 209.312 76.4213L211.205 77.0667C212.218 74.0972 212.699 69.969 212.699 64.744H210.699ZM209.322 76.3929C208.07 79.733 205.89 82.0508 202.757 83.4107L203.553 85.2453C207.203 83.6612 209.76 80.923 211.195 77.0951L209.322 76.3929ZM202.228 84.7031L212.212 109.375L214.066 108.625L204.082 83.9529L202.228 84.7031ZM213.139 108H192.979V110H213.139V108ZM193.915 108.648L185.467 86.184L183.595 86.888L192.043 109.352L193.915 108.648ZM237.122 42.952V41.952H236.391L236.169 42.6487L237.122 42.952ZM238.754 42.952L239.715 42.675L239.507 41.952H238.754V42.952ZM246.338 69.256L247.302 69.5236L247.378 69.2509L247.299 68.979L246.338 69.256ZM235.298 109V110H236.058L236.262 109.268L235.298 109ZM216.098 109L215.145 108.697L214.73 110H216.098V109ZM258.722 97.288L259.683 97.0122L259.476 96.288H258.722V97.288ZM242.69 97.288L241.725 97.0249L241.381 98.288H242.69V97.288ZM246.722 82.504V81.504H245.958L245.757 82.2409L246.722 82.504ZM254.402 82.504V83.504H255.729L255.364 82.2287L254.402 82.504ZM243.074 42.952V41.952H241.748L242.113 43.2273L243.074 42.952ZM260.642 42.952L261.595 42.6487L261.373 41.952H260.642V42.952ZM281.666 109V110H283.034L282.619 108.697L281.666 109ZM262.082 109L261.121 109.276L261.329 110H262.082V109ZM237.122 43.952H238.754V41.952H237.122V43.952ZM237.793 43.229L245.377 69.533L247.299 68.979L239.715 42.675L237.793 43.229ZM245.375 68.9884L234.335 108.732L236.262 109.268L247.302 69.5236L245.375 68.9884ZM235.298 108H216.098V110H235.298V108ZM217.051 109.303L238.075 43.2553L236.169 42.6487L215.145 108.697L217.051 109.303ZM258.722 96.288H242.69V98.288H258.722V96.288ZM243.655 97.5511L247.687 82.7671L245.757 82.2409L241.725 97.0249L243.655 97.5511ZM246.722 83.504H254.402V81.504H246.722V83.504ZM255.364 82.2287L244.036 42.6767L242.113 43.2273L253.441 82.7793L255.364 82.2287ZM243.074 43.952H260.642V41.952H243.074V43.952ZM259.689 43.2553L280.713 109.303L282.619 108.697L261.595 42.6487L259.689 43.2553ZM281.666 108H262.082V110H281.666V108ZM263.043 108.724L259.683 97.0122L257.761 97.5638L261.121 109.276L263.043 108.724ZM288.053 42.952V41.952H287.053V42.952H288.053ZM307.253 42.952H308.253V41.952H307.253V42.952ZM307.253 109V110H308.253V109H307.253ZM288.053 109H287.053V110H288.053V109ZM311.285 93.544V92.544H310.285V93.544H311.285ZM331.829 93.544H332.829V92.544H331.829V93.544ZM331.829 109V110H332.829V109H331.829ZM311.285 109H310.285V110H311.285V109ZM288.053 43.952H307.253V41.952H288.053V43.952ZM306.253 42.952V109H308.253V42.952H306.253ZM307.253 108H288.053V110H307.253V108ZM289.053 109V42.952H287.053V109H289.053ZM311.285 94.544H331.829V92.544H311.285V94.544ZM330.829 93.544V109H332.829V93.544H330.829ZM331.829 108H311.285V110H331.829V108ZM312.285 109V93.544H310.285V109H312.285ZM339.99 42.952V41.952H338.99V42.952H339.99ZM359.19 42.952H360.19V41.952H359.19V42.952ZM359.19 109V110H360.19V109H359.19ZM339.99 109H338.99V110H339.99V109ZM339.99 43.952H359.19V41.952H339.99V43.952ZM358.19 42.952V109H360.19V42.952H358.19ZM359.19 108H339.99V110H359.19V108ZM340.99 109V42.952H338.99V109H340.99Z" fill="black" mask="url(#path-1-outside-1_1_4)"/>
</g>
<g filter="url(#filter1_d_1_4)">
<mask id="path-3-outside-2_1_4" maskUnits="userSpaceOnUse" x="450" y="41" width="337" height="70" fill="black">
<rect fill="white" x="450" y="41" width="337" height="70"/>
<path d="M451.24 45.832V42.952H468.904L496.552 101.704L493.384 109H480.904L451.24 45.832ZM505.48 81.256H505.096L498.664 96.808L490.408 79.144L505.48 42.952H523.72V109H505.48V81.256ZM451.24 55.336L468.904 92.968V109H451.24V55.336ZM551.154 42.952H552.786L560.37 69.256L549.33 109H530.13L551.154 42.952ZM572.754 97.288H556.722L560.754 82.504H568.434L557.106 42.952H574.674L595.698 109H576.114L572.754 97.288ZM602.084 45.64V42.952H621.284L658.34 106.216V109H639.236L602.084 45.64ZM640.1 67.048V42.952H658.34V98.248L640.1 67.048ZM602.084 53.608L620.324 84.808V109H602.084V53.608ZM685.779 42.952H687.411L694.995 69.256L683.955 109H664.755L685.779 42.952ZM707.379 97.288H691.347L695.379 82.504H703.059L691.731 42.952H709.299L730.323 109H710.739L707.379 97.288ZM782.213 58.12C780.101 57.864 776.389 57.512 771.077 57.064C768.133 56.936 765.765 56.872 763.973 56.872C761.669 56.872 759.493 56.936 757.445 57.064V42.184H759.845C765.093 42.184 770.533 42.536 776.165 43.24C777.957 43.496 779.973 43.848 782.213 44.296V58.12ZM766.373 89.512C766.373 88.168 766.277 87.208 766.085 86.632C765.893 85.992 765.573 85.576 765.125 85.384C764.677 85.128 763.909 84.936 762.821 84.808L751.013 83.368C744.037 82.6 739.333 80.328 736.901 76.552C735.813 74.952 735.077 73 734.693 70.696C734.309 68.392 734.117 65.576 734.117 62.248C734.117 55.144 735.941 50.024 739.589 46.888C742.533 44.328 747.141 42.824 753.413 42.376V61.672C753.413 62.504 753.445 63.208 753.509 63.784C753.573 64.36 753.701 64.808 753.893 65.128C754.085 65.512 754.405 65.8 754.853 65.992C755.301 66.12 755.973 66.216 756.869 66.28L770.117 67.912C772.869 68.296 775.109 68.776 776.837 69.352C778.565 69.928 780.037 70.824 781.253 72.04C784.133 75.048 785.573 80.392 785.573 88.072C785.573 96.2 783.781 101.896 780.197 105.16C778.597 106.632 776.645 107.72 774.341 108.424C772.101 109.064 769.445 109.48 766.373 109.672V89.512ZM761.285 109.768C754.885 109.768 748.933 109.48 743.429 108.904C740.165 108.584 737.701 108.264 736.037 107.944V93.928C739.813 94.248 744.133 94.568 748.997 94.888C752.069 95.016 754.245 95.08 755.525 95.08C758.981 95.08 761.253 94.984 762.341 94.792V109.768H761.285Z"/>
</mask>
<path d="M451.24 45.832V42.952H468.904L496.552 101.704L493.384 109H480.904L451.24 45.832ZM505.48 81.256H505.096L498.664 96.808L490.408 79.144L505.48 42.952H523.72V109H505.48V81.256ZM451.24 55.336L468.904 92.968V109H451.24V55.336ZM551.154 42.952H552.786L560.37 69.256L549.33 109H530.13L551.154 42.952ZM572.754 97.288H556.722L560.754 82.504H568.434L557.106 42.952H574.674L595.698 109H576.114L572.754 97.288ZM602.084 45.64V42.952H621.284L658.34 106.216V109H639.236L602.084 45.64ZM640.1 67.048V42.952H658.34V98.248L640.1 67.048ZM602.084 53.608L620.324 84.808V109H602.084V53.608ZM685.779 42.952H687.411L694.995 69.256L683.955 109H664.755L685.779 42.952ZM707.379 97.288H691.347L695.379 82.504H703.059L691.731 42.952H709.299L730.323 109H710.739L707.379 97.288ZM782.213 58.12C780.101 57.864 776.389 57.512 771.077 57.064C768.133 56.936 765.765 56.872 763.973 56.872C761.669 56.872 759.493 56.936 757.445 57.064V42.184H759.845C765.093 42.184 770.533 42.536 776.165 43.24C777.957 43.496 779.973 43.848 782.213 44.296V58.12ZM766.373 89.512C766.373 88.168 766.277 87.208 766.085 86.632C765.893 85.992 765.573 85.576 765.125 85.384C764.677 85.128 763.909 84.936 762.821 84.808L751.013 83.368C744.037 82.6 739.333 80.328 736.901 76.552C735.813 74.952 735.077 73 734.693 70.696C734.309 68.392 734.117 65.576 734.117 62.248C734.117 55.144 735.941 50.024 739.589 46.888C742.533 44.328 747.141 42.824 753.413 42.376V61.672C753.413 62.504 753.445 63.208 753.509 63.784C753.573 64.36 753.701 64.808 753.893 65.128C754.085 65.512 754.405 65.8 754.853 65.992C755.301 66.12 755.973 66.216 756.869 66.28L770.117 67.912C772.869 68.296 775.109 68.776 776.837 69.352C778.565 69.928 780.037 70.824 781.253 72.04C784.133 75.048 785.573 80.392 785.573 88.072C785.573 96.2 783.781 101.896 780.197 105.16C778.597 106.632 776.645 107.72 774.341 108.424C772.101 109.064 769.445 109.48 766.373 109.672V89.512ZM761.285 109.768C754.885 109.768 748.933 109.48 743.429 108.904C740.165 108.584 737.701 108.264 736.037 107.944V93.928C739.813 94.248 744.133 94.568 748.997 94.888C752.069 95.016 754.245 95.08 755.525 95.08C758.981 95.08 761.253 94.984 762.341 94.792V109.768H761.285Z" fill="white"/>
<path d="M451.24 45.832H450.24V46.0551L450.335 46.2571L451.24 45.832ZM451.24 42.952V41.952H450.24V42.952H451.24ZM468.904 42.952L469.809 42.5262L469.539 41.952H468.904V42.952ZM496.552 101.704L497.469 102.102L497.649 101.687L497.457 101.278L496.552 101.704ZM493.384 109V110H494.04L494.301 109.398L493.384 109ZM480.904 109L479.999 109.425L480.269 110H480.904V109ZM505.48 81.256H506.48V80.256H505.48V81.256ZM505.096 81.256V80.256H504.427L504.172 80.8738L505.096 81.256ZM498.664 96.808L497.758 97.2314L498.72 99.2893L499.588 97.1902L498.664 96.808ZM490.408 79.144L489.485 78.7596L489.315 79.1673L489.502 79.5674L490.408 79.144ZM505.48 42.952V41.952H504.813L504.557 42.5676L505.48 42.952ZM523.72 42.952H524.72V41.952H523.72V42.952ZM523.72 109V110H524.72V109H523.72ZM505.48 109H504.48V110H505.48V109ZM451.24 55.336L452.145 54.9111L450.24 55.336H451.24ZM468.904 92.968H469.904V92.745L469.809 92.5431L468.904 92.968ZM468.904 109V110H469.904V109H468.904ZM451.24 109H450.24V110H451.24V109ZM452.24 45.832V42.952H450.24V45.832H452.24ZM451.24 43.952H468.904V41.952H451.24V43.952ZM467.999 43.3778L495.647 102.13L497.457 101.278L469.809 42.5262L467.999 43.3778ZM495.635 101.306L492.467 108.602L494.301 109.398L497.469 102.102L495.635 101.306ZM493.384 108H480.904V110H493.384V108ZM481.809 108.575L452.145 45.4069L450.335 46.2571L479.999 109.425L481.809 108.575ZM505.48 80.256H505.096V82.256H505.48V80.256ZM504.172 80.8738L497.74 96.4258L499.588 97.1902L506.02 81.6382L504.172 80.8738ZM499.57 96.3846L491.314 78.7206L489.502 79.5674L497.758 97.2314L499.57 96.3846ZM491.331 79.5284L506.403 43.3364L504.557 42.5676L489.485 78.7596L491.331 79.5284ZM505.48 43.952H523.72V41.952H505.48V43.952ZM522.72 42.952V109H524.72V42.952H522.72ZM523.72 108H505.48V110H523.72V108ZM506.48 109V81.256H504.48V109H506.48ZM450.335 55.7609L467.999 93.3929L469.809 92.5431L452.145 54.9111L450.335 55.7609ZM467.904 92.968V109H469.904V92.968H467.904ZM468.904 108H451.24V110H468.904V108ZM452.24 109V55.336H450.24V109H452.24ZM551.154 42.952V41.952H550.422L550.201 42.6487L551.154 42.952ZM552.786 42.952L553.746 42.675L553.538 41.952H552.786V42.952ZM560.37 69.256L561.333 69.5236L561.409 69.2509L561.33 68.979L560.37 69.256ZM549.33 109V110H550.09L550.293 109.268L549.33 109ZM530.13 109L529.177 108.697L528.762 110H530.13V109ZM572.754 97.288L573.715 97.0122L573.507 96.288H572.754V97.288ZM556.722 97.288L555.757 97.0249L555.412 98.288H556.722V97.288ZM560.754 82.504V81.504H559.99L559.789 82.2409L560.754 82.504ZM568.434 82.504V83.504H569.76L569.395 82.2287L568.434 82.504ZM557.106 42.952V41.952H555.779L556.144 43.2273L557.106 42.952ZM574.674 42.952L575.626 42.6487L575.405 41.952H574.674V42.952ZM595.698 109V110H597.065L596.65 108.697L595.698 109ZM576.114 109L575.152 109.276L575.36 110H576.114V109ZM551.154 43.952H552.786V41.952H551.154V43.952ZM551.825 43.229L559.409 69.533L561.33 68.979L553.746 42.675L551.825 43.229ZM559.406 68.9884L548.366 108.732L550.293 109.268L561.333 69.5236L559.406 68.9884ZM549.33 108H530.13V110H549.33V108ZM531.082 109.303L552.106 43.2553L550.201 42.6487L529.177 108.697L531.082 109.303ZM572.754 96.288H556.722V98.288H572.754V96.288ZM557.686 97.5511L561.718 82.7671L559.789 82.2409L555.757 97.0249L557.686 97.5511ZM560.754 83.504H568.434V81.504H560.754V83.504ZM569.395 82.2287L558.067 42.6767L556.144 43.2273L567.472 82.7793L569.395 82.2287ZM557.106 43.952H574.674V41.952H557.106V43.952ZM573.721 43.2553L594.745 109.303L596.65 108.697L575.626 42.6487L573.721 43.2553ZM595.698 108H576.114V110H595.698V108ZM577.075 108.724L573.715 97.0122L571.792 97.5638L575.152 109.276L577.075 108.724ZM602.084 45.64H601.084V45.9116L601.221 46.1458L602.084 45.64ZM602.084 42.952V41.952H601.084V42.952H602.084ZM621.284 42.952L622.147 42.4466L621.857 41.952H621.284V42.952ZM658.34 106.216H659.34V105.945L659.203 105.711L658.34 106.216ZM658.34 109V110H659.34V109H658.34ZM639.236 109L638.373 109.506L638.663 110H639.236V109ZM640.1 67.048H639.1V67.3189L639.236 67.5527L640.1 67.048ZM640.1 42.952V41.952H639.1V42.952H640.1ZM658.34 42.952H659.34V41.952H658.34V42.952ZM658.34 98.248L657.476 98.7527L659.34 101.94V98.248H658.34ZM602.084 53.608L602.947 53.1033L601.084 49.9161V53.608H602.084ZM620.324 84.808H621.324V84.5371L621.187 84.3033L620.324 84.808ZM620.324 109V110H621.324V109H620.324ZM602.084 109H601.084V110H602.084V109ZM603.084 45.64V42.952H601.084V45.64H603.084ZM602.084 43.952H621.284V41.952H602.084V43.952ZM620.421 43.4574L657.477 106.721L659.203 105.711L622.147 42.4466L620.421 43.4574ZM657.34 106.216V109H659.34V106.216H657.34ZM658.34 108H639.236V110H658.34V108ZM640.098 108.494L602.946 45.1342L601.221 46.1458L638.373 109.506L640.098 108.494ZM641.1 67.048V42.952H639.1V67.048H641.1ZM640.1 43.952H658.34V41.952H640.1V43.952ZM657.34 42.952V98.248H659.34V42.952H657.34ZM659.203 97.7433L640.963 66.5433L639.236 67.5527L657.476 98.7527L659.203 97.7433ZM601.22 54.1127L619.46 85.3127L621.187 84.3033L602.947 53.1033L601.22 54.1127ZM619.324 84.808V109H621.324V84.808H619.324ZM620.324 108H602.084V110H620.324V108ZM603.084 109V53.608H601.084V109H603.084ZM685.779 42.952V41.952H685.047L684.826 42.6487L685.779 42.952ZM687.411 42.952L688.371 42.675L688.163 41.952H687.411V42.952ZM694.995 69.256L695.958 69.5236L696.034 69.2509L695.955 68.979L694.995 69.256ZM683.955 109V110H684.715L684.918 109.268L683.955 109ZM664.755 109L663.802 108.697L663.387 110H664.755V109ZM707.379 97.288L708.34 97.0122L708.132 96.288H707.379V97.288ZM691.347 97.288L690.382 97.0249L690.037 98.288H691.347V97.288ZM695.379 82.504V81.504H694.615L694.414 82.2409L695.379 82.504ZM703.059 82.504V83.504H704.385L704.02 82.2287L703.059 82.504ZM691.731 42.952V41.952H690.404L690.769 43.2273L691.731 42.952ZM709.299 42.952L710.251 42.6487L710.03 41.952H709.299V42.952ZM730.323 109V110H731.69L731.275 108.697L730.323 109ZM710.739 109L709.777 109.276L709.985 110H710.739V109ZM685.779 43.952H687.411V41.952H685.779V43.952ZM686.45 43.229L694.034 69.533L695.955 68.979L688.371 42.675L686.45 43.229ZM694.031 68.9884L682.991 108.732L684.918 109.268L695.958 69.5236L694.031 68.9884ZM683.955 108H664.755V110H683.955V108ZM665.707 109.303L686.731 43.2553L684.826 42.6487L663.802 108.697L665.707 109.303ZM707.379 96.288H691.347V98.288H707.379V96.288ZM692.311 97.5511L696.343 82.7671L694.414 82.2409L690.382 97.0249L692.311 97.5511ZM695.379 83.504H703.059V81.504H695.379V83.504ZM704.02 82.2287L692.692 42.6767L690.769 43.2273L702.097 82.7793L704.02 82.2287ZM691.731 43.952H709.299V41.952H691.731V43.952ZM708.346 43.2553L729.37 109.303L731.275 108.697L710.251 42.6487L708.346 43.2553ZM730.323 108H710.739V110H730.323V108ZM711.7 108.724L708.34 97.0122L706.417 97.5638L709.777 109.276L711.7 108.724ZM782.213 58.12L782.092 59.1127L783.213 59.2485V58.12H782.213ZM771.077 57.064L771.161 56.0675L771.141 56.0658L771.12 56.0649L771.077 57.064ZM757.445 57.064H756.445V58.1285L757.507 58.0621L757.445 57.064ZM757.445 42.184V41.184H756.445V42.184H757.445ZM776.165 43.24L776.306 42.25L776.297 42.2488L776.289 42.2477L776.165 43.24ZM782.213 44.296H783.213V43.4762L782.409 43.3154L782.213 44.296ZM766.085 86.632L765.127 86.9193L765.131 86.9339L765.136 86.9482L766.085 86.632ZM765.125 85.384L764.629 86.2522L764.678 86.2806L764.731 86.3031L765.125 85.384ZM762.821 84.808L762.7 85.8007L762.704 85.8012L762.821 84.808ZM751.013 83.368L751.134 82.3753L751.122 82.374L751.013 83.368ZM736.901 76.552L737.741 76.0105L737.735 76L737.728 75.9897L736.901 76.552ZM734.693 70.696L735.679 70.5316L735.679 70.5316L734.693 70.696ZM739.589 46.888L740.241 47.6463L740.245 47.6426L739.589 46.888ZM753.413 42.376H754.413V41.302L753.342 41.3785L753.413 42.376ZM753.893 65.128L754.787 64.6808L754.77 64.6464L754.75 64.6135L753.893 65.128ZM754.853 65.992L754.459 66.9111L754.517 66.9361L754.578 66.9535L754.853 65.992ZM756.869 66.28L756.991 65.2875L756.966 65.2844L756.94 65.2825L756.869 66.28ZM770.117 67.912L770.255 66.9216L770.247 66.9205L770.239 66.9195L770.117 67.912ZM776.837 69.352L776.521 70.3007L776.521 70.3007L776.837 69.352ZM781.253 72.04L781.975 71.3484L781.968 71.3406L781.96 71.3329L781.253 72.04ZM780.197 105.16L779.523 104.421L779.52 104.424L780.197 105.16ZM774.341 108.424L774.615 109.386L774.624 109.383L774.633 109.38L774.341 108.424ZM766.373 109.672H765.373V110.736L766.435 110.67L766.373 109.672ZM743.429 108.904L743.533 107.909L743.526 107.909L743.429 108.904ZM736.037 107.944H735.037V108.77L735.848 108.926L736.037 107.944ZM736.037 93.928L736.121 92.9316L735.037 92.8397V93.928H736.037ZM748.997 94.888L748.931 95.8858L748.943 95.8866L748.955 95.8871L748.997 94.888ZM762.341 94.792H763.341V93.6001L762.167 93.8072L762.341 94.792ZM762.341 109.768V110.768H763.341V109.768H762.341ZM782.333 57.1273C780.201 56.8688 776.472 56.5155 771.161 56.0675L770.993 58.0605C776.305 58.5085 780.001 58.8592 782.092 59.1127L782.333 57.1273ZM771.12 56.0649C768.17 55.9367 765.785 55.872 763.973 55.872V57.872C765.744 57.872 768.096 57.9353 771.033 58.0631L771.12 56.0649ZM763.973 55.872C761.65 55.872 759.453 55.9365 757.382 56.0659L757.507 58.0621C759.532 57.9355 761.687 57.872 763.973 57.872V55.872ZM758.445 57.064V42.184H756.445V57.064H758.445ZM757.445 43.184H759.845V41.184H757.445V43.184ZM759.845 43.184C765.048 43.184 770.447 43.533 776.041 44.2323L776.289 42.2477C770.619 41.539 765.137 41.184 759.845 41.184V43.184ZM776.023 44.2299C777.793 44.4828 779.79 44.8313 782.017 45.2766L782.409 43.3154C780.155 42.8647 778.12 42.5092 776.306 42.25L776.023 44.2299ZM781.213 44.296V58.12H783.213V44.296H781.213ZM767.373 89.512C767.373 88.1587 767.281 87.0573 767.033 86.3158L765.136 86.9482C765.273 87.3587 765.373 88.1773 765.373 89.512H767.373ZM767.043 86.3447C766.799 85.5318 766.33 84.8125 765.519 84.4649L764.731 86.3031C764.816 86.3395 764.987 86.4522 765.127 86.9193L767.043 86.3447ZM765.621 84.5158C764.985 84.1526 764.043 83.9449 762.938 83.8148L762.704 85.8012C763.775 85.9271 764.368 86.1034 764.629 86.2522L765.621 84.5158ZM762.942 83.8154L751.134 82.3754L750.892 84.3606L762.7 85.8006L762.942 83.8154ZM751.122 82.374C744.276 81.6203 739.936 79.4182 737.741 76.0105L736.06 77.0935C738.729 81.2378 743.797 83.5797 750.903 84.362L751.122 82.374ZM737.728 75.9897C736.736 74.5314 736.044 72.722 735.679 70.5316L733.706 70.8604C734.109 73.278 734.889 75.3726 736.074 77.1143L737.728 75.9897ZM735.679 70.5316C735.307 68.2994 735.117 65.542 735.117 62.248H733.117C733.117 65.61 733.31 68.4846 733.706 70.8604L735.679 70.5316ZM735.117 62.248C735.117 55.2939 736.902 50.5162 740.241 47.6463L738.937 46.1297C734.979 49.5317 733.117 54.9941 733.117 62.248H735.117ZM740.245 47.6426C742.952 45.2883 747.306 43.8147 753.484 43.3735L753.342 41.3785C746.975 41.8333 742.113 43.3677 738.933 46.1334L740.245 47.6426ZM752.413 42.376V61.672H754.413V42.376H752.413ZM752.413 61.672C752.413 62.5265 752.445 63.2698 752.515 63.8944L754.503 63.6736C754.444 63.1462 754.413 62.4815 754.413 61.672H752.413ZM752.515 63.8944C752.587 64.5424 752.74 65.1499 753.035 65.6425L754.75 64.6135C754.662 64.4661 754.559 64.1776 754.503 63.6736L752.515 63.8944ZM752.998 65.5752C753.31 66.1993 753.825 66.6394 754.459 66.9111L755.247 65.0729C754.985 64.9606 754.859 64.8247 754.787 64.6808L752.998 65.5752ZM754.578 66.9535C755.128 67.1107 755.884 67.2122 756.798 67.2775L756.94 65.2825C756.062 65.2198 755.473 65.1293 755.127 65.0305L754.578 66.9535ZM756.746 67.2725L769.994 68.9045L770.239 66.9195L756.991 65.2875L756.746 67.2725ZM769.979 68.9024C772.698 69.2819 774.872 69.7512 776.521 70.3007L777.153 68.4033C775.345 67.8008 773.039 67.3101 770.255 66.9216L769.979 68.9024ZM776.521 70.3007C778.11 70.8306 779.446 71.6474 780.546 72.7471L781.96 71.3329C780.628 70.0006 779.019 69.0254 777.153 68.4033L776.521 70.3007ZM780.53 72.7316C783.132 75.4488 784.573 80.4545 784.573 88.072H786.573C786.573 80.3295 785.133 74.6472 781.975 71.3484L780.53 72.7316ZM784.573 88.072C784.573 96.1008 782.795 101.441 779.523 104.421L780.87 105.899C784.767 102.351 786.573 96.2992 786.573 88.072H784.573ZM779.52 104.424C778.041 105.784 776.225 106.803 774.049 107.468L774.633 109.38C777.064 108.637 779.152 107.48 780.874 105.896L779.52 104.424ZM774.066 107.462C771.913 108.078 769.332 108.485 766.31 108.674L766.435 110.67C769.558 110.475 772.288 110.05 774.615 109.386L774.066 107.462ZM767.373 109.672V89.512H765.373V109.672H767.373ZM761.285 108.768C754.914 108.768 748.997 108.481 743.533 107.909L743.325 109.899C748.868 110.479 754.855 110.768 761.285 110.768V108.768ZM743.526 107.909C740.27 107.59 737.843 107.273 736.226 106.962L735.848 108.926C737.558 109.255 740.059 109.578 743.331 109.899L743.526 107.909ZM737.037 107.944V93.928H735.037V107.944H737.037ZM735.952 94.9244C739.736 95.2451 744.063 95.5655 748.931 95.8858L749.062 93.8902C744.203 93.5705 739.889 93.2509 736.121 92.9316L735.952 94.9244ZM748.955 95.8871C752.027 96.0151 754.222 96.08 755.525 96.08V94.08C754.268 94.08 752.11 94.0169 749.038 93.8889L748.955 95.8871ZM755.525 96.08C758.963 96.08 761.325 95.9867 762.515 95.7768L762.167 93.8072C761.18 93.9813 758.998 94.08 755.525 94.08V96.08ZM761.341 94.792V109.768H763.341V94.792H761.341ZM762.341 108.768H761.285V110.768H762.341V108.768Z" fill="black" mask="url(#path-3-outside-2_1_4)"/>
</g>
<defs>
<filter id="filter0_d_1_4" x="2.23999" y="42.952" width="360.95" height="74.816" filterUnits="userSpaceOnUse" color-interpolation-filters="sRGB">
<feFlood flood-opacity="0" result="BackgroundImageFix"/>
<feColorMatrix in="SourceAlpha" type="matrix" values="0 0 0 0 0 0 0 0 0 0 0 0 0 0 0 0 0 0 127 0" result="hardAlpha"/>
<feOffset dy="4"/>
<feGaussianBlur stdDeviation="2"/>
<feComposite in2="hardAlpha" operator="out"/>
<feColorMatrix type="matrix" values="0 0 0 0 0 0 0 0 0 0 0 0 0 0 0 0 0 0 0.25 0"/>
<feBlend mode="normal" in2="BackgroundImageFix" result="effect1_dropShadow_1_4"/>
<feBlend mode="normal" in="SourceGraphic" in2="effect1_dropShadow_1_4" result="shape"/>
</filter>
<filter id="filter1_d_1_4" x="447.24" y="42.184" width="342.333" height="75.584" filterUnits="userSpaceOnUse" color-interpolation-filters="sRGB">
<feFlood flood-opacity="0" result="BackgroundImageFix"/>
<feColorMatrix in="SourceAlpha" type="matrix" values="0 0 0 0 0 0 0 0 0 0 0 0 0 0 0 0 0 0 127 0" result="hardAlpha"/>
<feOffset dy="4"/>
<feGaussianBlur stdDeviation="2"/>
<feComposite in2="hardAlpha" operator="out"/>
<feColorMatrix type="matrix" values="0 0 0 0 0 0 0 0 0 0 0 0 0 0 0 0 0 0 0.25 0"/>
<feBlend mode="normal" in2="BackgroundImageFix" result="effect1_dropShadow_1_4"/>
<feBlend mode="normal" in="SourceGraphic" in2="effect1_dropShadow_1_4" result="shape"/>
</filter>
</defs>
</svg>
